<?xml version="1.0" standalone="no"?>
<!DOCTYPE svg PUBLIC "-//W3C//DTD SVG 20010904//EN"
 "http://www.w3.org/TR/2001/REC-SVG-20010904/DTD/svg10.dtd">
<svg version="1.0" xmlns="http://www.w3.org/2000/svg"
 width="1600.000000pt" height="1600.000000pt" viewBox="0 0 1600.000000 1600.000000"
 preserveAspectRatio="xMidYMid meet">

<g transform="translate(0.000000,1600.000000) scale(0.100000,-0.100000)"
fill="#000000" stroke="none">
<path d="M7740 13994 c-310 -17 -560 -46 -827 -94 -1525 -278 -2890 -1148
-3799 -2420 -631 -883 -1000 -1898 -1096 -3010 -16 -187 -16 -753 0 -940 125
-1456 724 -2752 1742 -3770 945 -946 2148 -1538 3470 -1709 273 -36 437 -45
770 -45 424 0 700 24 1087 94 1525 278 2890 1148 3799 2420 631 883 1000 1898
1096 3010 16 187 16 753 0 940 -125 1456 -724 2752 -1742 3770 -1004 1004
-2293 1607 -3710 1735 -159 15 -656 27 -790 19z m560 -504 c1586 -88 3033
-840 4021 -2090 1380 -1745 1564 -4185 461 -6115 -713 -1248 -1881 -2172
-3243 -2565 -1431 -414 -2975 -233 -4254 498 -867 496 -1571 1200 -2067 2067
-731 1279 -912 2823 -498 4254 315 1089 975 2067 1880 2782 1044 826 2364
1243 3700 1169z"/>
</g>
</svg>
