<?xml version="1.0" standalone="no"?>
<!DOCTYPE svg PUBLIC "-//W3C//DTD SVG 20010904//EN"
 "http://www.w3.org/TR/2001/REC-SVG-20010904/DTD/svg10.dtd">
<svg version="1.0" xmlns="http://www.w3.org/2000/svg"
 width="304.000000pt" height="166.000000pt" viewBox="0 0 304.000000 166.000000"
 preserveAspectRatio="xMidYMid meet">
<metadata>
Created by potrace 1.16, written by Peter Selinger 2001-2019
</metadata>
<g transform="translate(0.000000,166.000000) scale(0.100000,-0.100000)"
fill="#000000" stroke="none">
<path d="M1375 1480 c-22 -24 -15 -35 17 -24 13 4 28 6 33 5 6 -2 19 -5 29 -6
11 -1 21 -6 23 -12 5 -13 -18 -22 -64 -25 -18 -1 -33 -5 -33 -9 0 -4 -16 -13
-35 -19 -29 -10 -33 -14 -25 -30 5 -10 17 -21 27 -24 10 -4 14 -4 11 0 -15 14
14 43 48 50 36 7 103 -14 76 -23 -10 -4 -10 -8 -1 -20 10 -12 10 -17 -2 -24
-19 -14 25 -2 69 17 18 8 38 12 45 8 6 -4 -2 8 -19 27 -17 19 -33 39 -35 45
-2 7 -24 28 -47 48 -50 41 -89 46 -117 16z"/>
<path d="M2601 1483 c0 -7 -7 -13 -15 -13 -8 0 -16 -7 -20 -15 -8 -22 -42 -18
-67 8 -18 18 -21 19 -15 4 3 -10 6 -32 6 -48 0 -19 4 -28 11 -24 6 4 8 13 5
20 -3 10 7 13 41 13 52 0 66 10 60 43 -2 13 -5 18 -6 12z"/>
<path d="M2710 1463 c14 -3 34 -12 45 -21 20 -17 20 -17 1 6 -12 13 -29 21
-45 21 l-26 -2 25 -4z"/>
<path d="M1131 1441 c-9 -6 2 -11 34 -16 30 -4 56 -16 71 -30 15 -16 24 -19
24 -10 0 13 -82 65 -104 65 -6 0 -17 -4 -25 -9z"/>
<path d="M233 1428 c-23 -30 -27 -43 -7 -26 11 9 31 21 44 27 l25 10 -26 0
c-15 1 -31 -5 -36 -11z"/>
<path d="M402 1425 c0 -31 13 -71 20 -60 3 6 0 26 -8 45 -7 21 -12 27 -12 15z"/>
<path d="M2588 1414 c-34 -18 -35 -21 -6 -20 26 1 35 -25 15 -45 -11 -12 -11
-17 4 -32 11 -12 19 -15 24 -8 3 6 -1 14 -9 17 -11 4 -13 11 -7 22 7 14 14 83
8 82 -1 -1 -14 -8 -29 -16z"/>
<path d="M520 1405 c-7 -8 -27 -19 -44 -23 l-31 -9 42 -4 c39 -4 42 -3 45 23
5 32 5 33 -12 13z"/>
<path d="M1725 1410 c-3 -5 -30 -16 -60 -25 -42 -12 -55 -20 -55 -35 0 -26 69
-82 93 -74 13 4 17 2 13 -5 -12 -18 6 -12 20 6 8 12 9 22 3 30 -19 22 10 24
31 3 25 -25 34 -23 16 2 -7 9 -28 21 -47 27 l-34 11 33 -3 c33 -4 44 9 17 19
-25 10 -17 23 20 30 20 3 33 9 30 12 -10 10 -74 12 -80 2z m-35 -100 c0 -5 -5
-10 -11 -10 -5 0 -7 5 -4 10 3 6 8 10 11 10 2 0 4 -4 4 -10z"/>
<path d="M2783 1388 c-9 -15 -40 -36 -64 -44 -16 -5 -18 -21 -19 -103 0 -56
17 -58 24 -4 2 17 13 45 25 61 23 32 55 102 47 102 -3 0 -9 -6 -13 -12z"/>
<path d="M346 1362 c1 -34 -27 -55 -76 -55 -33 0 -37 -2 -32 -21 3 -11 9 -26
13 -32 5 -5 7 -28 6 -50 -2 -33 -6 -40 -26 -42 -18 -3 -21 -6 -10 -12 10 -7 8
-11 -11 -18 -20 -8 -30 -6 -47 11 -13 11 -23 17 -23 13 0 -14 61 -86 69 -82 4
3 7 -7 6 -22 0 -28 -6 -29 -55 -17 -23 6 -23 5 -6 -6 11 -6 35 -15 53 -20 32
-7 35 -5 45 21 5 16 16 31 24 34 8 3 14 11 14 17 0 8 -4 8 -12 2 -20 -15 -50
-24 -43 -13 3 6 2 10 -2 10 -5 0 -18 7 -29 15 -10 8 -14 14 -9 13 19 -4 56 23
75 55 12 19 20 26 20 16 0 -9 7 -19 15 -23 19 -7 20 16 0 54 -14 27 -13 29 10
44 14 9 25 14 25 10 0 -4 7 -1 15 6 12 10 14 24 9 59 -7 52 -20 75 -18 33z m9
-71 c-3 -11 -9 -20 -13 -19 -4 1 -15 -2 -25 -7 -10 -4 -23 -3 -28 2 -7 7 2 17
28 30 43 23 47 23 38 -6z"/>
<path d="M1405 1372 c-31 -6 -43 -21 -38 -43 6 -22 18 -17 18 8 0 9 6 18 14
21 9 3 11 -1 7 -16 -5 -15 -1 -24 12 -31 23 -12 38 -3 44 31 4 21 1 27 -16 30
-12 2 -30 2 -41 0z"/>
<path d="M2481 1364 c0 -11 3 -14 6 -6 3 7 2 16 -1 19 -3 4 -6 -2 -5 -13z"/>
<path d="M1933 1353 c9 -2 25 -2 35 0 9 3 1 5 -18 5 -19 0 -27 -2 -17 -5z"/>
<path d="M406 1335 c-8 -22 -8 -22 9 -22 17 0 18 6 6 25 -7 11 -10 10 -15 -3z"/>
<path d="M505 1340 c-3 -5 3 -10 15 -10 12 0 18 5 15 10 -3 6 -10 10 -15 10
-5 0 -12 -4 -15 -10z"/>
<path d="M536 1297 c3 -10 9 -15 12 -12 3 3 0 11 -7 18 -10 9 -11 8 -5 -6z"/>
<path d="M411 1290 c0 -8 4 -24 9 -35 l9 -20 0 20 c0 11 -4 27 -9 35 -9 13
-10 13 -9 0z"/>
<path d="M1006 1293 c-3 -3 -6 -88 -6 -187 0 -100 -5 -197 -10 -216 -31 -117
-48 -209 -50 -273 0 -5 -4 -6 -9 -3 -11 7 -21 -42 -21 -101 0 -45 39 -121 54
-106 4 5 12 0 17 -9 6 -11 19 -15 45 -13 38 4 124 -20 135 -37 3 -5 9 -3 12 6
5 13 19 14 74 10 78 -6 156 3 148 17 -4 5 -2 9 3 9 4 0 18 24 31 54 22 54 38
67 89 71 16 1 27 -5 34 -21 6 -13 19 -24 30 -24 22 0 22 0 3 36 -17 33 -7 49
24 39 23 -7 51 -53 51 -83 0 -33 29 -90 47 -96 18 -6 199 0 235 7 10 2 21 6
24 10 4 4 17 7 29 7 12 0 33 12 48 28 27 28 37 79 40 212 l2 55 61 2 c34 2 82
-3 108 -11 50 -15 63 -12 19 5 -46 17 -110 27 -125 18 -18 -10 -34 1 -40 26
-5 18 -6 18 -16 -5 -10 -24 -11 -23 -12 15 0 22 -7 67 -16 100 -8 33 -19 127
-24 210 -4 82 -12 151 -18 153 -5 1 -7 14 -4 27 2 15 0 25 -7 25 -6 0 -10 3
-10 8 6 39 -9 41 -50 6 -24 -19 -38 -24 -57 -20 -23 6 -25 5 -18 -16 13 -42
-7 -237 -30 -293 -17 -39 -63 -88 -76 -80 -5 3 -7 0 -4 -8 3 -9 -12 -30 -37
-53 -23 -22 -51 -47 -61 -57 -25 -23 -94 -48 -113 -41 -25 10 -17 22 23 35 20
6 42 16 48 20 6 5 19 7 28 3 12 -5 16 0 17 17 0 23 1 23 9 4 8 -19 9 -19 9 2
1 12 8 28 16 37 22 22 18 32 -5 11 -11 -10 -26 -15 -36 -11 -24 9 -90 -4 -72
-15 8 -6 1 -9 -22 -9 -21 0 -30 -3 -22 -8 7 -5 -16 -6 -50 -4 -35 3 -72 11
-83 18 -36 25 -39 15 -7 -19 18 -18 32 -41 32 -51 0 -15 -5 -17 -31 -12 -17 3
-38 6 -47 6 -8 0 -13 3 -10 6 4 3 -6 18 -20 32 -44 44 -67 74 -55 70 6 -2 12
2 13 7 0 6 -9 13 -22 17 -13 3 -16 6 -8 7 10 1 8 6 -8 17 -42 29 -85 159 -67
201 4 10 7 29 6 43 -1 14 3 39 10 55 6 17 13 41 14 55 1 14 6 36 10 50 8 25 8
25 -13 6 -12 -10 -19 -24 -15 -30 3 -6 3 -8 -2 -4 -4 4 -15 2 -23 -5 -13 -9
-14 -9 -8 1 5 8 0 12 -18 12 -33 0 -46 -38 -20 -57 15 -11 16 -13 2 -13 -9 0
-20 5 -23 10 -10 17 -24 2 -18 -20 3 -11 0 -20 -6 -20 -6 0 -11 16 -11 35 0
28 -4 35 -19 35 -20 0 -37 32 -26 49 6 11 -9 23 -19 14z m144 -47 c0 -3 -4 -8
-10 -11 -5 -3 -10 -1 -10 4 0 6 5 11 10 11 6 0 10 -2 10 -4z m855 -16 c3 -5 1
-10 -4 -10 -6 0 -11 5 -11 10 0 6 2 10 4 10 3 0 8 -4 11 -10z m-75 -130 c0 -5
-2 -10 -4 -10 -3 0 -8 5 -11 10 -3 6 -1 10 4 10 6 0 11 -4 11 -10z m26 -87
c-10 -10 -19 5 -10 18 6 11 8 11 12 0 2 -7 1 -15 -2 -18z m29 -3 c3 -5 1 -10
-4 -10 -6 0 -11 5 -11 10 0 6 2 10 4 10 3 0 8 -4 11 -10z m-160 -189 c-2 -32
-52 -98 -98 -129 -44 -31 -58 -36 -92 -32 -16 1 -14 4 10 15 17 7 49 31 72 53
23 22 44 38 47 35 3 -3 9 2 13 13 5 15 43 64 48 64 1 0 1 -9 0 -19z m-222
-168 c-7 -2 -19 -2 -25 0 -7 3 -2 5 12 5 14 0 19 -2 13 -5z m-50 -10 c-7 -2
-19 -2 -25 0 -7 3 -2 5 12 5 14 0 19 -2 13 -5z"/>
<path d="M2831 1264 c13 -17 26 -30 28 -27 3 2 -8 16 -24 31 l-28 27 24 -31z"/>
<path d="M1032 1269 c2 -7 10 -15 17 -17 8 -3 12 1 9 9 -2 7 -10 15 -17 17 -8
3 -12 -1 -9 -9z"/>
<path d="M1427 1250 c-14 -11 -39 -20 -57 -20 -17 0 -44 -7 -59 -15 -16 -8
-31 -11 -35 -8 -12 12 -6 -13 7 -26 6 -8 7 -11 1 -8 -16 9 -43 -55 -37 -86 7
-35 19 -34 32 3 5 17 25 44 43 61 30 28 38 30 88 27 38 -3 68 -13 99 -32 l45
-28 65 21 c36 12 75 21 87 21 23 0 69 -44 79 -77 3 -13 13 -23 22 -23 10 0 13
6 9 16 -3 9 -6 24 -6 35 0 11 -15 29 -35 41 -19 13 -38 31 -41 42 -3 10 -9 15
-13 9 -7 -9 -40 -13 -111 -13 -74 1 -90 4 -95 18 -3 7 0 10 6 6 6 -3 5 3 -3
15 -8 13 -23 21 -41 21 -16 0 -26 4 -22 10 9 15 0 12 -28 -10z"/>
<path d="M2429 1253 c-13 -16 -12 -17 4 -4 16 13 21 21 13 21 -2 0 -10 -8 -17
-17z"/>
<path d="M2385 1219 c-4 -6 -5 -12 -2 -15 2 -3 7 2 10 11 7 17 1 20 -8 4z"/>
<path d="M147 1202 c-19 -20 -22 -32 -9 -32 5 0 14 11 20 25 14 30 11 31 -11
7z"/>
<path d="M2222 1208 c-7 -7 -11 -21 -11 -32 1 -21 1 -21 6 -1 3 11 10 26 15
33 13 15 6 16 -10 0z"/>
<path d="M2833 1201 c-9 -11 -21 -17 -26 -14 -6 4 -8 0 -4 -10 4 -12 -1 -17
-21 -19 -22 -2 -26 -7 -24 -28 5 -33 7 -34 31 -20 14 7 21 7 21 0 0 -5 -7 -10
-15 -10 -9 0 -15 -9 -15 -21 0 -20 2 -20 22 7 13 16 21 38 19 52 -2 16 7 34
25 53 15 16 22 29 16 29 -7 0 -20 -9 -29 -19z"/>
<path d="M2220 1139 c0 -9 28 -46 63 -81 34 -36 53 -54 43 -42 -10 13 -19 36
-20 52 -1 18 -6 28 -13 25 -6 -3 -9 -12 -6 -20 4 -11 2 -14 -5 -9 -7 4 -12 14
-12 22 0 8 -4 14 -10 14 -5 0 -16 12 -24 28 -10 17 -15 21 -16 11z"/>
<path d="M2332 1119 c-12 -18 -11 -20 5 -17 10 2 19 11 21 21 5 23 -10 21 -26
-4z"/>
<path d="M1323 1119 c-19 -24 30 -162 73 -203 42 -41 107 -61 169 -52 40 7 56
17 122 83 86 87 86 87 -28 104 -41 5 -111 22 -157 36 -56 17 -95 24 -122 20
-30 -4 -40 -1 -42 11 -3 13 -5 13 -15 1z m107 -61 c0 -16 -3 -19 -11 -11 -6 6
-8 16 -5 22 11 17 16 13 16 -11z m60 2 c0 -6 10 -8 24 -4 14 3 29 0 37 -9 8
-7 20 -12 27 -9 7 2 20 1 30 -3 16 -8 26 -10 65 -13 9 -1 17 -7 17 -13 0 -7
-14 -10 -35 -7 -19 2 -35 0 -35 -4 0 -14 -38 -9 -54 8 -9 8 -16 11 -16 5 0
-14 -37 -14 -45 -1 -3 6 -17 10 -31 10 -19 0 -24 5 -24 25 0 18 5 25 20 25 11
0 20 -5 20 -10z m-40 -130 c0 -5 -5 -10 -11 -10 -5 0 -7 5 -4 10 3 6 8 10 11
10 2 0 4 -4 4 -10z m50 0 c0 -3 18 -4 40 -2 22 2 52 1 67 -3 25 -6 25 -7 9
-23 -19 -20 -115 -20 -127 -1 -4 6 -12 8 -18 5 -7 -4 -11 0 -11 11 0 12 7 19
20 19 11 0 20 -3 20 -6z"/>
<path d="M2846 1118 c-17 -10 -22 -48 -7 -48 5 0 19 13 30 28 21 30 10 39 -23
20z"/>
<path d="M2380 1113 c0 -7 -9 -15 -20 -18 -11 -3 -20 -13 -20 -21 0 -19 10
-17 39 7 18 15 21 23 13 31 -9 9 -12 9 -12 1z"/>
<path d="M2963 1070 c11 -30 10 -33 -18 -56 -20 -16 -25 -24 -14 -24 40 0 66
74 35 100 -13 10 -13 7 -3 -20z"/>
<path d="M1190 1030 c0 -5 7 -10 15 -10 8 0 15 5 15 10 0 6 -7 10 -15 10 -8 0
-15 -4 -15 -10z"/>
<path d="M893 1018 c-13 -6 -23 -15 -23 -20 0 -14 16 -9 35 12 20 22 19 23
-12 8z"/>
<path d="M396 1005 c-9 -26 -7 -32 5 -12 6 10 9 21 6 23 -2 3 -7 -2 -11 -11z"/>
<path d="M1277 1013 c-14 -13 -7 -42 8 -37 8 4 15 15 15 25 0 19 -11 25 -23
12z"/>
<path d="M1200 994 c0 -22 36 -83 52 -87 10 -3 18 -4 18 -2 0 2 3 12 6 22 5
15 4 16 -6 3 -9 -11 -13 -12 -17 -2 -2 7 -11 19 -19 26 -8 8 -14 19 -14 25 0
5 -4 13 -10 16 -5 3 -10 3 -10 -1z"/>
<path d="M2868 993 c7 -3 16 -2 19 1 4 3 -2 6 -13 5 -11 0 -14 -3 -6 -6z"/>
<path d="M766 981 c-4 -6 -2 -11 4 -11 18 0 -100 -112 -145 -139 -21 -12 -51
-23 -67 -23 -16 -1 -28 -7 -28 -15 0 -7 -9 -13 -20 -13 -20 0 -58 -46 -47 -56
3 -4 19 3 35 15 33 23 42 26 42 12 0 -5 -16 -21 -35 -35 -29 -22 -41 -26 -70
-20 -31 5 -34 8 -23 22 11 13 10 15 -4 9 -10 -3 -20 -2 -23 4 -4 5 -19 16 -36
24 -26 14 -29 14 -29 -1 0 -9 18 -34 40 -56 l39 -40 63 7 c35 4 66 9 71 12 4
2 7 2 7 -1 0 -3 -16 -12 -35 -20 -37 -16 -49 -38 -15 -29 11 3 17 9 14 14 -3
5 5 8 18 8 13 -1 31 2 41 6 10 4 17 3 17 -3 0 -6 -6 -13 -12 -15 -8 -3 -6 -6
5 -6 9 -1 17 -5 17 -11 0 -5 5 -10 11 -10 6 0 9 7 6 15 -4 8 -2 17 4 20 5 4 7
11 4 16 -4 5 -1 9 4 9 6 0 11 -12 11 -27 0 -22 2 -25 10 -13 7 11 10 12 10 2
0 -8 -9 -16 -20 -19 -11 -3 -20 -9 -20 -13 0 -6 -33 -21 -50 -23 -3 0 -13 -8
-22 -18 -17 -18 -17 -19 10 -17 15 1 29 5 32 8 3 3 22 14 42 23 21 10 37 21
36 25 -1 4 8 27 21 50 23 46 23 92 -1 154 -12 33 -4 46 72 113 51 45 78 78 50
60 -7 -4 -16 -2 -20 5 -5 9 -9 9 -14 1z m-106 -213 c-15 -28 -51 -68 -61 -68
-4 0 6 14 21 31 16 16 32 39 35 50 4 11 9 18 12 16 2 -3 -1 -16 -7 -29z m-85
2 c-3 -5 -12 -10 -18 -10 -7 0 -6 4 3 10 19 12 23 12 15 0z m98 -45 c-3 -9 -8
-14 -10 -11 -3 3 -2 9 2 15 9 16 15 13 8 -4z"/>
<path d="M2807 959 c-17 -17 -43 -40 -56 -50 -13 -11 -22 -21 -20 -24 3 -2 31
21 64 51 33 30 57 54 52 54 -4 0 -22 -14 -40 -31z"/>
<path d="M2359 959 c-1 -23 -9 -63 -15 -79 -13 -29 -16 -149 -5 -167 9 -15 10
-13 5 12 l-6 30 22 -32 c12 -18 27 -33 33 -33 7 0 6 4 -3 9 -9 7 -15 30 -16
75 -1 37 2 63 7 60 5 -3 9 -11 9 -19 0 -7 7 -15 15 -19 13 -4 14 -2 5 14 -6
11 -8 20 -4 20 3 0 -1 11 -10 25 -25 38 -19 39 14 2 57 -65 193 -104 248 -72
31 18 75 92 50 83 -7 -3 -31 -11 -53 -19 -22 -8 -45 -20 -51 -28 -13 -17 -77
-10 -98 11 -7 7 -24 23 -37 35 -43 39 -49 49 -36 63 10 10 8 12 -7 6 -13 -4
-27 1 -43 15 -17 16 -23 19 -24 8z"/>
<path d="M241 944 c0 -11 3 -14 6 -6 3 7 2 16 -1 19 -3 4 -6 -2 -5 -13z"/>
<path d="M97 927 c-7 -19 12 -37 38 -35 11 1 32 -1 46 -5 27 -7 70 15 57 29
-4 4 -15 1 -24 -7 -15 -12 -16 -11 -9 11 8 25 7 25 -13 7 -11 -11 -25 -17 -29
-14 -5 3 -15 2 -23 -3 -11 -7 -18 -3 -26 12 -9 17 -12 18 -17 5z"/>
<path d="M1357 833 c-4 -3 -7 -19 -7 -35 0 -16 -4 -27 -10 -23 -5 3 -7 12 -4
19 3 7 -2 19 -11 26 -21 17 -21 -7 1 -38 22 -32 31 -27 36 18 2 22 3 40 2 40
0 0 -4 -3 -7 -7z"/>
<path d="M260 820 c0 -5 5 -10 10 -10 6 0 10 5 10 10 0 6 -4 10 -10 10 -5 0
-10 -4 -10 -10z"/>
<path d="M2410 826 c0 -2 8 -10 18 -17 15 -13 16 -12 3 4 -13 16 -21 21 -21
13z"/>
<path d="M825 690 c-3 -5 1 -10 9 -10 9 0 16 5 16 10 0 6 -4 10 -9 10 -6 0
-13 -4 -16 -10z"/>
<path d="M2335 680 c-3 -6 1 -7 9 -4 18 7 21 14 7 14 -6 0 -13 -4 -16 -10z"/>
<path d="M810 659 c0 -5 -5 -7 -10 -4 -6 4 -17 2 -24 -4 -7 -6 -22 -9 -32 -5
-16 5 -16 4 -4 -5 14 -10 7 -16 -13 -12 -5 1 -6 -3 -2 -9 3 -5 1 -10 -4 -10
-6 0 -11 7 -11 17 0 9 -12 -1 -30 -26 -17 -23 -42 -47 -55 -53 -14 -6 -25 -16
-25 -21 0 -11 43 15 80 48 28 24 127 75 147 75 7 0 13 5 13 10 0 6 -7 10 -15
10 -8 0 -15 -5 -15 -11z"/>
<path d="M2335 660 c-11 -5 -17 -9 -13 -9 3 -1 14 -4 24 -8 11 -4 15 -3 11 4
-4 6 -1 14 5 16 7 3 9 5 3 6 -5 0 -19 -4 -30 -9z"/>
<path d="M2370 641 c0 -5 5 -13 10 -16 6 -3 10 -2 10 4 0 5 -4 13 -10 16 -5 3
-10 2 -10 -4z"/>
<path d="M952 105 c3 -33 10 -44 46 -72 59 -44 141 -46 110 -3 -8 12 -9 12 -4
-2 3 -10 3 -18 0 -18 -11 0 -89 64 -122 100 l-32 35 2 -40z"/>
<path d="M1943 61 c-34 -25 -62 -49 -62 -53 -1 -5 18 -8 42 -8 42 0 44 1 66
51 13 27 22 51 20 53 -2 1 -32 -18 -66 -43z"/>
<path d="M1850 15 c0 -8 5 -15 10 -15 6 0 10 7 10 15 0 8 -4 15 -10 15 -5 0
-10 -7 -10 -15z"/>
<path d="M1185 10 c-3 -5 1 -10 10 -10 9 0 13 5 10 10 -3 6 -8 10 -10 10 -2 0
-7 -4 -10 -10z"/>
</g>
</svg>
