<?xml version="1.0" standalone="no"?>
<!DOCTYPE svg PUBLIC "-//W3C//DTD SVG 20010904//EN"
 "http://www.w3.org/TR/2001/REC-SVG-20010904/DTD/svg10.dtd">
<svg version="1.0" xmlns="http://www.w3.org/2000/svg"
 width="396.000000pt" height="360.000000pt" viewBox="0 0 396.000000 360.000000"
 preserveAspectRatio="xMidYMid meet">
<metadata>
Created by potrace 1.16, written by Peter Selinger 2001-2019
</metadata>
<g transform="translate(0.000000,360.000000) scale(0.100000,-0.100000)"
fill="#000000" stroke="none">
<path d="M1875 2806 c-96 -42 -198 -262 -265 -571 -41 -193 -50 -289 -50 -572
0 -150 -3 -273 -8 -273 -11 0 -55 31 -70 50 -6 8 -27 42 -45 75 -36 67 -89
125 -114 125 -11 0 -3 -12 23 -34 22 -19 53 -58 68 -87 41 -77 73 -117 107
-135 56 -29 57 -26 62 334 4 319 5 330 35 467 89 409 190 615 302 615 40 0 67
-26 92 -88 21 -52 23 -72 22 -217 l-1 -160 -64 -85 c-74 -97 -124 -196 -184
-360 -53 -143 -108 -334 -103 -357 2 -10 16 27 32 82 37 130 110 339 146 420
32 72 120 213 148 239 18 16 19 14 25 -42 3 -31 23 -114 43 -182 63 -216 56
-325 -28 -416 -54 -59 -101 -86 -218 -125 -52 -17 -104 -36 -115 -41 -39 -20
-75 -62 -81 -95 -4 -22 -12 -33 -24 -33 -9 0 -25 -9 -35 -20 -17 -19 -17 -21
0 -47 24 -37 211 -223 224 -223 30 0 -9 80 -92 188 -22 29 -37 55 -34 58 10
10 147 -69 242 -139 105 -78 154 -97 244 -97 55 0 75 5 118 30 62 36 120 105
165 198 29 59 33 77 33 147 0 78 -2 83 -53 178 -29 54 -54 110 -54 125 -1 15
12 52 28 82 27 52 29 60 24 155 -10 214 -5 283 28 400 44 157 45 180 6 219
-32 31 -87 35 -137 10 -18 -9 -84 -68 -148 -131 l-117 -115 2 139 c1 121 -2
146 -22 205 -36 103 -85 136 -157 104z m567 -223 c30 -27 29 -64 -2 -173 -42
-145 -50 -221 -39 -364 11 -137 7 -173 -27 -232 -13 -22 -24 -54 -24 -70 0
-17 25 -79 56 -139 55 -107 56 -112 52 -180 -4 -86 -45 -177 -115 -255 -62
-69 -112 -94 -188 -94 -84 0 -120 15 -237 100 -56 41 -139 93 -185 116 -72 36
-83 45 -83 67 0 58 42 88 193 136 100 31 192 86 230 137 65 84 81 196 48 318
-58 209 -71 267 -71 321 l0 59 118 120 c152 154 216 185 274 133z m-773 -1316
c19 -29 52 -78 74 -110 22 -32 37 -60 35 -62 -5 -6 -177 166 -190 189 -12 22
-2 36 25 35 15 0 33 -16 56 -52z"/>
</g>
</svg>
